#!OML:ASF I:\Actors\actors\Patient Classification 2\Patient 1\Session 1\actor1.ASF
:FULLY-SPECIFIED
:DEGREES
322
root -0.355961 18.6126 4.74001 20.3944 -7.24484 -0.0448547
lowerback 33.79 -3.60599 -0.0591829
upperback 4.86704 -3.81339 5.75174
thorax -11.5509 -1.69199 7.75452
lowerneck -3.12218 -0.745861 -13.3963
upperneck -6.41648 -0.574835 5.03636
head -1.4931 -0.0620778 4.09246
rclavicle 7.13637e-014 -3.35946e-014
rhumerus 4.51476 27.2743 -65.64
rradius 144.81
rwrist 8.17391
rhand 3.35884 -27.829
rfingers 7.12502
rthumb 28.8034 -55.6264
lclavicle 7.13637e-014 -3.35946e-014
lhumerus -7.04646 -34.4808 92.6746
lradius 137.819
lwrist -12.6622
lhand -22.8755 -45.3834
lfingers 7.12502
lthumb 3.56333 -15.4334
rfemur -30.5729 4.24248 9.88429
rtibia 22.6728
rfoot -17.4974 -7.75566
rtoes -12.6292
lfemur -37.3138 8.41327 -17.1833
ltibia 35.9491
lfoot -17.3259 6.32423
ltoes -57.0062
323
root -0.348522 18.6176 4.7423 20.5026 -7.0674 0.0499483
lowerback 33.8313 -3.67598 0.0474232
upperback 4.91748 -3.88438 5.58442
thorax -11.5126 -1.73081 7.53867
lowerneck -3.70741 -0.77491 -13.2942
upperneck -6.31546 -0.52933 5.14168
head -1.35741 -0.0406886 4.10515
rclavicle -8.09054e-014 4.57205e-015
rhumerus 4.2096 27.3417 -65.9629
rradius 144.861
rwrist 8.00719
rhand 3.22519 -27.423
rfingers 7.12502
rthumb 28.6757 -55.2421
lclavicle -8.09054e-014 4.57205e-015
lhumerus -7.49234 -34.7253 92.7144
lradius 137.898
lwrist -13.1017
lhand -23.8396 -45.5602
lfingers 7.12502
lthumb 2.6323 -15.5967
rfemur -30.732 4.01229 9.78425
rtibia 22.8175
rfoot -17.3395 -7.75636
rtoes -12.6121
lfemur -37.4018 8.14401 -17.2452
ltibia 35.8315
lfoot -17.3104 6.40683
ltoes -56.963
324
root -0.340615 18.6255 4.74944 20.5458 -6.99533 0.0869179
lowerback 33.9235 -3.68294 0.0712357
upperback 4.90329 -3.90334 5.40735
thorax -11.5709 -1.73861 7.34523
lowerneck -4.01706 -0.745353 -13.0178
upperneck -6.10778 -0.454943 5.10247
head -1.2386 -0.0121736 4.03249
rclavicle -8.15017e-015 7.55382e-015
rhumerus 3.53107 27.4094 -66.5009
rradius 145.102
rwrist 8.17097
rhand 3.00434 -27.3265
rfingers 7.12502
rthumb 28.4647 -55.1811
lclavicle -8.15017e-015 7.55382e-015
lhumerus -8.28452 -34.8094 93.0244
lradius 137.899
lwrist -13.0152
lhand -23.2101 -46.7349
lfingers 7.12502
lthumb 3.24022 -16.7798
rfemur -30.7403 3.97803 9.68329
rtibia 22.8232
rfoot -17.2833 -7.73004
rtoes -11.9353
lfemur -37.3978 8.11191 -17.3111
ltibia 35.732
lfoot -17.2249 6.33033
ltoes -56.8771
325
root -0.332034 18.6333 4.75707 20.5942 -7.01936 0.0379517
lowerback 34.0492 -3.63574 0.0656115
upperback 4.8019 -3.86282 5.22017
thorax -11.7472 -1.71307 7.14215
lowerneck -3.91495 -0.709388 -12.7076
upperneck -5.94753 -0.431274 5.01574
head -1.20466 -0.0113944 3.93886
rclavicle 3.66758e-014 -3.6477e-014
rhumerus 2.91615 27.3526 -67.0754
rradius 145.237
rwrist 8.41995
rhand 2.89768 -27.0823
rfingers 7.12502
rthumb 28.3628 -54.9538
lclavicle 3.66758e-014 -3.6477e-014
lhumerus -9.30984 -34.8653 93.4456
lradius 137.96
lwrist -12.5631
lhand -22.1623 -48.1432
lfingers 7.12502
lthumb 4.25205 -18.2059
rfemur -30.7077 4.04605 9.65352
rtibia 22.7056
rfoot -17.2084 -7.72749
rtoes -11.3965
lfemur -37.3803 8.26786 -17.3475
ltibia 35.6201
lfoot -17.0893 6.22013
ltoes -56.8773
326
root -0.323294 18.6413 4.76531 20.5983 -7.12819 -0.000448617
lowerback 34.134 -3.48717 0.011438
upperback 4.80276 -3.7089 5.10348
thorax -11.7988 -1.64074 6.98802
lowerneck -3.95174 -0.771282 -12.601
upperneck -5.69338 -0.510131 5.06478
head -1.10553 -0.0603897 3.93255
rclavicle 5.36719e-015 5.77469e-014
rhumerus 2.79917 26.8893 -67.1644
rradius 145.243
rwrist 8.48376
rhand 2.88062 -26.6129
rfingers 7.12502
rthumb 28.3465 -54.4872
lclavicle 5.36719e-015 5.77469e-014
lhumerus -9.96806 -35.0509 93.8566
lradius 137.97
lwrist -12.2132
lhand -22.2261 -48.883
lfingers 7.12502
lthumb 4.1904 -18.9444
rfemur -30.596 4.13755 9.63289
rtibia 22.4846
rfoot -17.1118 -7.78977
rtoes -11.4376
lfemur -37.29 8.42489 -17.3948
ltibia 35.5125
lfoot -17.0551 6.1889
ltoes -56.8917
327
root -0.314791 18.6492 4.77465 20.5437 -7.24195 -0.00261533
lowerback 34.1746 -3.22031 -0.0736391
upperback 4.84624 -3.41604 5.01973
thorax -11.7967 -1.50691 6.82631
lowerneck -3.75204 -0.915607 -12.2029
upperneck -5.5043 -0.747027 4.87611
head -1.05528 -0.192955 3.78388
rclavicle 1.50082e-014 -1.23246e-014
rhumerus 2.93341 26.0184 -66.8593
rradius 145.168
rwrist 8.30284
rhand 3.09528 -26.4502
rfingers 7.12502
rthumb 28.5516 -54.2902
lclavicle 1.50082e-014 -1.23246e-014
lhumerus -10.3534 -35.4647 94.3023
lradius 137.909
lwrist -11.9896
lhand -22.8979 -49.1023
lfingers 7.12502
lthumb 3.54166 -19.152
rfemur -30.3901 4.31396 9.57345
rtibia 22.2124
rfoot -17.1773 -7.93318
rtoes -11.4839
lfemur -37.1313 8.53467 -17.4584
ltibia 35.4187
lfoot -17.0664 6.13005
ltoes -56.7649
328
root -0.306237 18.6541 4.78218 20.4917 -7.30177 -0.00754741
lowerback 34.238 -3.36794 0.11535
upperback 4.80194 -3.57815 4.671
thorax -11.8751 -1.5867 6.41333
lowerneck -3.39354 -0.835258 -12.0698
upperneck -5.37681 -0.686958 4.87057
head -1.08274 -0.171454 3.75741
rclavicle 4.40308e-014 -5.96354e-015
rhumerus 3.44722 25.7806 -67.0054
rradius 144.908
rwrist 8.11777
rhand 3.40576 -26.6998
rfingers 7.12502
rthumb 28.8482 -54.4895
lclavicle 4.40308e-014 -5.96354e-015
lhumerus -10.9007 -35.2547 94.2173
lradius 137.985
lwrist -11.8977
lhand -23.2275 -49.337
lfingers 7.12502
lthumb 3.22339 -19.3816
rfemur -30.177 4.5947 9.48992
rtibia 21.9313
rfoot -17.3495 -8.2268
rtoes -11.8004
lfemur -36.9992 8.57294 -17.4965
ltibia 35.3371
lfoot -17.0356 6.10046
ltoes -56.6325
329
root -0.298356 18.6555 4.78739 20.4452 -7.32887 0.0129985
lowerback 34.2652 -3.43715 0.267341
upperback 4.76401 -3.64657 4.39211
thorax -11.9398 -1.62282 6.05847
lowerneck -3.12261 -0.851144 -11.8081
upperneck -5.15778 -0.746578 4.88235
head -1.05298 -0.214355 3.70968
rclavicle -1.69464e-014 1.12562e-014
rhumerus 3.90686 25.3855 -67.0329
rradius 144.727
rwrist 8.04712
rhand 3.76004 -26.8628
rfingers 7.12502
rthumb 29.1866 -54.5943
lclavicle -1.69464e-014 1.12562e-014
lhumerus -11.3113 -35.1704 94.1614
lradius 138.135
lwrist -11.7251
lhand -22.7942 -49.7091
lfingers 7.12502
lthumb 3.64186 -19.7605
rfemur -29.9951 4.92997 9.36065
rtibia 21.6818
rfoot -17.5557 -8.6287
rtoes -12.4673
lfemur -36.9048 8.51113 -17.5321
ltibia 35.2791
lfoot -17.0149 6.19474
ltoes -56.5742
330
root -0.2917 18.6562 4.79234 20.3748 -7.32952 0.0939845
lowerback 34.2559 -3.41747 0.356546
upperback 4.807 -3.61396 4.22527
thorax -11.9009 -1.6145 5.81275
lowerneck -3.12034 -1.03229 -11.353
upperneck -4.78376 -0.997415 4.97078
head -0.907228 -0.358522 3.64679
rclavicle -1.00386e-014 -3.87133e-014
rhumerus 4.4958 24.7232 -66.7807
rradius 144.641
rwrist 8.00271
rhand 4.03068 -26.9855
rfingers 7.12502
rthumb 29.445 -54.6718
lclavicle -1.00386e-014 -3.87133e-014
lhumerus -11.3983 -35.2795 94.1469
lradius 138.197
lwrist -11.4639
lhand -21.9798 -50.2949
lfingers 7.12502
lthumb 4.42828 -20.3612
rfemur -29.8217 5.25818 9.16928
rtibia 21.4933
rfoot -17.867 -8.97549
rtoes -12.3045
lfemur -36.8157 8.39539 -17.6137
ltibia 35.2611
lfoot -17.0365 6.30388
ltoes -56.5201
